<svg xmlns="http://www.w3.org/2000/svg" width="1024" height="1024" viewBox="0 0 1024 1024">
  <defs>
    <linearGradient id="base" x1="0" y1="0" x2="1" y2="1">
      <stop offset="0" stop-color="#4f9cff"/>
      <stop offset="0.48" stop-color="#586fe9"/>
      <stop offset="1" stop-color="#8a55df"/>
    </linearGradient>
    <linearGradient id="glass" x1="0" y1="0" x2="0" y2="1">
      <stop offset="0" stop-color="#ffffff" stop-opacity="0.48"/>
      <stop offset="0.5" stop-color="#ffffff" stop-opacity="0.12"/>
      <stop offset="1" stop-color="#ffffff" stop-opacity="0.02"/>
    </linearGradient>
    <radialGradient id="glow" cx="0.25" cy="0.1" r="0.9">
      <stop offset="0" stop-color="#d8eeff" stop-opacity="0.52"/>
      <stop offset="1" stop-color="#ffffff" stop-opacity="0"/>
    </radialGradient>
    <filter id="shadow" x="-30%" y="-30%" width="160%" height="170%">
      <feDropShadow dx="0" dy="42" stdDeviation="42" flood-color="#101a47" flood-opacity="0.5"/>
    </filter>
    <filter id="soft" x="-20%" y="-20%" width="140%" height="140%">
      <feGaussianBlur stdDeviation="16"/>
    </filter>
  </defs>
  <g filter="url(#shadow)">
    <rect x="112" y="92" width="800" height="800" rx="214" fill="url(#base)"/>
    <rect x="112" y="92" width="800" height="800" rx="214" fill="url(#glow)"/>
    <path d="M150 300C182 157 286 116 430 108h268c105 0 175 51 199 132-174 101-487 161-747 60Z" fill="url(#glass)"/>
    <rect x="128" y="108" width="768" height="768" rx="198" fill="none" stroke="#ffffff" stroke-opacity="0.38" stroke-width="12"/>
    <ellipse cx="318" cy="217" rx="132" ry="56" fill="#ffffff" fill-opacity="0.16" filter="url(#soft)"/>
  </g>
  <g transform="translate(250 230) scale(22)" fill="none" stroke="#ffffff" stroke-width="1.9" stroke-linecap="round" stroke-linejoin="round">
    <circle cx="6" cy="6" r="3"/>
    <path d="M8.12 8.12 12 12"/>
    <path d="M20 4 8.12 15.88"/>
    <circle cx="6" cy="18" r="3"/>
    <path d="M14.8 14.8 20 20"/>
  </g>
  <path d="M287 704c125 62 325 67 462-5" fill="none" stroke="#ffffff" stroke-opacity="0.16" stroke-width="16" stroke-linecap="round"/>
</svg>
